<?xml version="1.0" standalone="no"?><!DOCTYPE svg PUBLIC "-//W3C//DTD SVG 1.1//EN" "http://www.w3.org/Graphics/SVG/1.1/DTD/svg11.dtd"><svg t="1482738800441" class="icon" style="" viewBox="0 0 1103 1024" version="1.1" xmlns="http://www.w3.org/2000/svg" p-id="2736" xmlns:xlink="http://www.w3.org/1999/xlink" width="17.234375" height="16"><defs><style type="text/css"></style></defs><path d="M567.443013 82.155481C555.889724 76.473084 542.18072 78.02583 532.109486 86.186016 531.637924 86.582461 482.66276 126.326201 428.601454 166.961949 334.558361 237.694577 307.174036 249.488854 301.616332 251.371974L168.36616 251.371974C167.6925 251.371974 167.052521 251.471086 166.378861 251.471086L106.220922 251.471086C91.063546 251.471086 78.769231 264.025219 78.769231 279.519662L78.769231 727.173612C78.769231 742.668056 91.063546 755.222189 106.220922 755.222189L323.409269 755.222189C328.865924 757.237458 354.734512 769.461218 438.167443 838.938433 486.704727 879.342919 530.290601 918.822363 530.728481 919.218809 536.959846 924.868169 544.909048 927.841516 552.925615 927.841516 557.540194 927.841516 562.222139 926.850401 566.600936 924.835132 578.592104 919.317921 586.305524 907.160234 586.305524 893.714097L586.305524 112.880065C586.339207 99.764303 578.996301 87.837877 567.443013 82.155481L567.443013 82.155481 567.443013 82.155481ZM531.772655 839.334879C516.985794 826.582523 500.481096 812.541716 483.572202 798.600021 372.148652 706.459294 344.595911 698.728591 325.901815 698.728591 325.531301 698.728591 325.194471 698.827702 324.823958 698.827702 324.453444 698.827702 324.116613 698.728591 323.7461 698.728591L157.014971 698.728591C137.781946 698.728591 133.335782 693.178342 133.335782 673.455139L133.335782 329.90138C133.335782 316.521317 134.885203 308.12987 150.682556 308.12987L302.458408 308.12987C320.647259 308.12987 348.604195 300.498278 470.469493 209.348666 492.195065 193.094368 513.41539 176.773995 531.772655 162.435853L531.772655 839.334879 531.772655 839.334879ZM860.047723 503.115377C860.047723 416.161488 813.868253 340.308095 745.222184 299.507163 742.123343 297.822266 734.746753 294.584622 729.626929 294.584622 714.402187 294.584622 702.040506 307.204829 702.040506 322.765346 702.040506 333.205098 707.497161 342.521587 715.74951 347.378054L715.74951 347.378054C768.800324 378.168717 804.639096 436.347212 804.639096 503.115377 804.639096 571.072881 767.587734 630.14338 712.953816 660.504559L712.953816 660.504559C705.004615 665.460138 699.750058 674.446254 699.750058 684.654746 699.750058 700.215264 712.11174 712.835471 727.336481 712.835471 733.803628 712.901545 741.483365 709.003157 741.483365 709.003157 812.217783 668.73082 860.047723 591.655051 860.047723 503.115377L860.047723 503.115377 860.047723 503.115377ZM828.217235 156.224862C823.09741 153.086329 817.977586 150.542464 811.779903 150.542464 796.622528 150.542464 784.328212 163.096597 784.328212 178.591041 784.328212 189.757611 790.829043 198.71069 799.990834 203.831455 900.804222 263.89307 968.608217 375.393593 968.608217 503.181451 968.608217 630.870198 900.905267 742.304647 800.192932 802.399298 791.367971 807.288803 783.7556 816.572254 783.7556 828.03616 783.7556 843.530602 796.049916 856.084735 811.207292 856.084735 817.303925 856.084735 822.154285 853.706058 827.442525 850.567524 944.423778 780.859049 1023.107403 651.452369 1023.107403 503.181451 1023.107403 355.174832 944.760611 226.032448 828.217235 156.224862L828.217235 156.224862 828.217235 156.224862Z" p-id="2737" fill="#e6e6e6"></path></svg>